{"title":"Suits.S02E05.720p.HDTV.x264-COMPULSiON","uid":7459312,"size":1012492996,"categoryP":"video","categoryS":"hd___tv_shows","magnet":"?xt=urn:btih:f40f3172c6173b11905177cf046a11e636538830&amp;dn=Suits.S02E05.720p.HDTV.x264-COMPULSiON&amp;tr=udp%3A%2F%2Ftracker.openbittorrent.com%3A80&amp;tr=udp%3A%2F%2Fopen.demonii.com%3A1337&amp;tr=udp%3A%2F%2Ftracker.coppersurfer.tk%3A6969&amp;tr=udp%3A%2F%2Fexodus.desync.com%3A6969","seeders":3,"leechers":0,"uploader":"tykoon123","files":-1,"time":1342761726,"description":"Info:\n\nDATE: 2012-07-20\n\nFormat : Matroska\nFormat version : Version 2\nFile size : 923 MiB\nDuration : 42mn 10s\nOverall bit rate : 3 061 Kbps\nWriting application : Lavf54.6.100\nWriting library : Lavf54.6.100\n\nVideo\nID : 1\nFormat : AVC\nFormat/Info : Advanced Video Codec\nFormat profile : &lt;a class=&quot;__cf_email__&quot; href=&quot;/cdn-cgi/l/email-protection&quot; data-cfemail=&quot;fbb3929c93bbb7cfd5ca&quot;&gt;[email&amp;#160;protected]&lt;/a&gt;&lt;script cf-hash='f9e31' type=&quot;text/javascript&quot;&gt;\n/* &lt;![CDATA[ */!function(){try{var t=&quot;currentScript&quot;in document?document.currentScript:function(){for(var t=document.getElementsByTagName(&quot;script&quot;),e=t.length;e--;)if(t[e].getAttribute(&quot;cf-hash&quot;))return t[e]}();if(t&amp;&amp;t.previousSibling){var e,r,n,i,c=t.previousSibling,a=c.getAttribute(&quot;data-cfemail&quot;);if(a){for(e=&quot;&quot;,r=parseInt(a.substr(0,2),16),n=2;a.length-n;n+=2)i=parseInt(a.substr(n,2),16)^r,e+=String.fromCharCode(i);e=document.createTextNode(e),c.parentNode.replaceChild(e,c)}}}catch(u){}}();/* ]]&gt; */&lt;/script&gt;\nFormat settings, CABAC : Yes\nFormat settings, ReFrames : 5 frames\nCodec ID : V_MPEG4/ISO/AVC\nDuration : 42mn 10s\nBit rate : 2 616 Kbps\nWidth : 1 280 pixels\nHeight : 724 pixels\nDisplay aspect ratio : 16:9\nFrame rate : 23.976 fps\nColor space : YUV\nChroma subsampling : 4:2:0\nBit depth : 8 bits\nScan type : Progressive\nBits/(Pixel*Frame) : 0.118\nStream size : 789 MiB (85%)\nDefault : Yes\nForced : No\n\nAudio\nID : 2\nFormat : AC-3\nFormat/Info : Audio Coding 3\nMode extension : CM (complete main)\nFormat settings, Endianness : Big\nCodec ID : A_AC3\nDuration : 42mn 10s\nBit rate mode : Constant\nBit rate : 384 Kbps\nChannel(s) : 6 channels\nChannel positions : Front: L C R, Side: L R, LFE\nSampling rate : 48.0 KHz\nBit depth : 16 bits\nCompression mode : Lossy\nStream size : 116 MiB (13%)\nDefault : Yes\nForced : No\n","torrent":{"xt":"urn:btih:f40f3172c6173b11905177cf046a11e636538830","amp;dn":"Suits.S02E05.720p.HDTV.x264-COMPULSiON","amp;tr":["udp%3A%2F%2Ftracker.openbittorrent.com%3A80","udp%3A%2F%2Fopen.demonii.com%3A1337","udp%3A%2F%2Ftracker.coppersurfer.tk%3A6969","udp%3A%2F%2Fexodus.desync.com%3A6969"],"infoHash":"f40f3172c6173b11905177cf046a11e636538830","infoHashBuffer":{"type":"Buffer","data":[244,15,49,114,198,23,59,17,144,81,119,207,4,106,17,230,54,83,136,48]},"announce":[],"urlList":[]}}